<svg width="268" height="59" viewBox="0 0 268 59" fill="none" xmlns="http://www.w3.org/2000/svg">
<rect width="268" height="59" fill="#1E1E1E"/>
<path d="M68.4063 58.625C65.6979 58.625 63.3216 57.9805 61.2773 56.6914C59.2461 55.4023 57.6576 53.599 56.5117 51.2812C55.3789 48.9635 54.8125 46.2552 54.8125 43.1562C54.8125 40.0312 55.3789 37.3034 56.5117 34.9727C57.6576 32.6419 59.2461 30.832 61.2773 29.543C63.3216 28.2539 65.6979 27.6094 68.4063 27.6094C71.1146 27.6094 73.4844 28.2539 75.5156 29.543C77.5599 30.832 79.1484 32.6419 80.2813 34.9727C81.4271 37.3034 82 40.0312 82 43.1562C82 46.2552 81.4271 48.9635 80.2813 51.2812C79.1484 53.599 77.5599 55.4023 75.5156 56.6914C73.4844 57.9805 71.1146 58.625 68.4063 58.625ZM68.4063 54.4844C70.4635 54.4844 72.1562 53.957 73.4844 52.9023C74.8125 51.8477 75.7956 50.4609 76.4336 48.7422C77.0716 47.0234 77.3906 45.1615 77.3906 43.1562C77.3906 41.151 77.0716 39.2826 76.4336 37.5508C75.7956 35.819 74.8125 34.4193 73.4844 33.3516C72.1562 32.2839 70.4635 31.75 68.4063 31.75C66.349 31.75 64.6563 32.2839 63.3281 33.3516C62 34.4193 61.0169 35.819 60.3789 37.5508C59.7409 39.2826 59.4219 41.151 59.4219 43.1562C59.4219 45.1615 59.7409 47.0234 60.3789 48.7422C61.0169 50.4609 62 51.8477 63.3281 52.9023C64.6563 53.957 66.349 54.4844 68.4063 54.4844ZM100.364 58.625C97.8643 58.625 95.6572 57.9935 93.7432 56.7305C91.8291 55.4544 90.3317 53.6576 89.251 51.3398C88.1702 49.0091 87.6299 46.2552 87.6299 43.0781C87.6299 39.9271 88.1702 37.1927 89.251 34.875C90.3317 32.5573 91.8356 30.7669 93.7627 29.5039C95.6898 28.2409 97.9163 27.6094 100.442 27.6094C102.396 27.6094 103.938 27.9349 105.071 28.5859C106.217 29.224 107.09 29.9531 107.688 30.7734C108.3 31.5807 108.776 32.2448 109.114 32.7656H109.505V18H114.114V58H109.661V53.3906H109.114C108.776 53.9375 108.294 54.6276 107.669 55.4609C107.044 56.2812 106.152 57.0169 104.993 57.668C103.834 58.306 102.291 58.625 100.364 58.625ZM100.989 54.4844C102.838 54.4844 104.401 54.0026 105.677 53.0391C106.953 52.0625 107.923 50.7148 108.587 48.9961C109.251 47.2643 109.583 45.2656 109.583 43C109.583 40.7604 109.257 38.8008 108.606 37.1211C107.955 35.4284 106.992 34.1133 105.716 33.1758C104.44 32.2253 102.864 31.75 100.989 31.75C99.0361 31.75 97.4085 32.2513 96.1064 33.2539C94.8174 34.2435 93.8473 35.5911 93.1963 37.2969C92.5583 38.9896 92.2393 40.8906 92.2393 43C92.2393 45.1354 92.5648 47.0755 93.2158 48.8203C93.8799 50.5521 94.8564 51.9323 96.1455 52.9609C97.4476 53.9766 99.0622 54.4844 100.989 54.4844ZM135.774 58.625C132.884 58.625 130.39 57.987 128.294 56.7109C126.211 55.4219 124.603 53.625 123.47 51.3203C122.35 49.0026 121.79 46.3073 121.79 43.2344C121.79 40.1615 122.35 37.4531 123.47 35.1094C124.603 32.7526 126.178 30.9167 128.196 29.6016C130.228 28.2734 132.597 27.6094 135.306 27.6094C136.868 27.6094 138.411 27.8698 139.935 28.3906C141.458 28.9115 142.845 29.7578 144.095 30.9297C145.345 32.0885 146.341 33.625 147.083 35.5391C147.825 37.4531 148.196 39.8099 148.196 42.6094V44.5625H125.071V40.5781H143.509C143.509 38.8854 143.17 37.375 142.493 36.0469C141.829 34.7187 140.879 33.6706 139.642 32.9023C138.418 32.1341 136.972 31.75 135.306 31.75C133.47 31.75 131.881 32.2057 130.54 33.1172C129.212 34.0156 128.19 35.1875 127.474 36.6328C126.757 38.0781 126.399 39.6276 126.399 41.2812V43.9375C126.399 46.2031 126.79 48.1237 127.571 49.6992C128.366 51.2617 129.466 52.4531 130.872 53.2734C132.278 54.0807 133.912 54.4844 135.774 54.4844C136.985 54.4844 138.079 54.3151 139.056 53.9766C140.045 53.625 140.898 53.1042 141.614 52.4141C142.33 51.7109 142.884 50.8385 143.274 49.7969L147.728 51.0469C147.259 52.5573 146.471 53.8854 145.364 55.0312C144.257 56.1641 142.89 57.0495 141.263 57.6875C139.635 58.3125 137.806 58.625 135.774 58.625ZM154.681 18L166.556 51.6719H167.024L178.899 18H183.978L169.29 58H164.29L149.603 18H154.681ZM195.052 18V58H190.208V18H195.052ZM202.576 22.2969V18H232.576V22.2969H219.998V58H215.154V22.2969H202.576ZM240.052 58V18H254.036C256.823 18 259.121 18.4818 260.931 19.4453C262.741 20.3958 264.088 21.6784 264.974 23.293C265.859 24.8945 266.302 26.6719 266.302 28.625C266.302 30.3437 265.996 31.763 265.384 32.8828C264.785 34.0026 263.991 34.888 263.001 35.5391C262.024 36.1901 260.963 36.6719 259.817 36.9844V37.375C261.041 37.4531 262.272 37.8828 263.509 38.6641C264.746 39.4453 265.781 40.5651 266.614 42.0234C267.448 43.4818 267.864 45.2656 267.864 47.375C267.864 49.3802 267.409 51.1836 266.497 52.7852C265.586 54.3867 264.147 55.6562 262.181 56.5937C260.215 57.5312 257.656 58 254.505 58H240.052ZM244.896 53.7031H254.505C257.669 53.7031 259.915 53.0911 261.243 51.8672C262.584 50.6302 263.255 49.1328 263.255 47.375C263.255 46.0208 262.91 44.7708 262.22 43.625C261.53 42.4661 260.547 41.5417 259.271 40.8516C257.994 40.1484 256.484 39.7969 254.739 39.7969H244.896V53.7031ZM244.896 35.5781H253.88C255.338 35.5781 256.653 35.2917 257.825 34.7187C259.01 34.1458 259.948 33.3385 260.638 32.2969C261.341 31.2552 261.692 30.0312 261.692 28.625C261.692 26.8672 261.08 25.3763 259.856 24.1523C258.632 22.9154 256.692 22.2969 254.036 22.2969H244.896V35.5781Z" fill="white"/>
<path d="M48.517 19H41.6477C41.2415 17.0241 40.5305 15.2884 39.5149 13.7926C38.5178 12.2969 37.299 11.0412 35.8587 10.0256C34.4368 8.99148 32.858 8.21591 31.1222 7.69886C29.3864 7.18182 27.5767 6.92329 25.6932 6.92329C22.2585 6.92329 19.147 7.79119 16.3587 9.52699C13.5888 11.2628 11.3821 13.8203 9.73864 17.1996C8.11364 20.5788 7.30114 24.7244 7.30114 29.6364C7.30114 34.5483 8.11364 38.6939 9.73864 42.0732C11.3821 45.4524 13.5888 48.0099 16.3587 49.7457C19.147 51.4815 22.2585 52.3494 25.6932 52.3494C27.5767 52.3494 29.3864 52.0909 31.1222 51.5739C32.858 51.0568 34.4368 50.2905 35.8587 49.2749C37.299 48.2408 38.5178 46.9759 39.5149 45.4801C40.5305 43.9659 41.2415 42.2301 41.6477 40.2727H48.517C48 43.1719 47.0582 45.7663 45.6918 48.0561C44.3253 50.3459 42.6264 52.294 40.5952 53.9006C38.5639 55.4886 36.2834 56.6982 33.7536 57.5291C31.2422 58.3601 28.5554 58.7756 25.6932 58.7756C20.8551 58.7756 16.5526 57.5938 12.7855 55.2301C9.01847 52.8665 6.05469 49.5057 3.89418 45.1477C1.73367 40.7898 0.653409 35.6193 0.653409 29.6364C0.653409 23.6534 1.73367 18.483 3.89418 14.125C6.05469 9.76705 9.01847 6.40625 12.7855 4.04261C16.5526 1.67898 20.8551 0.497157 25.6932 0.497157C28.5554 0.497157 31.2422 0.91264 33.7536 1.74361C36.2834 2.57457 38.5639 3.79332 40.5952 5.39986C42.6264 6.98792 44.3253 8.92684 45.6918 11.2166C47.0582 13.4879 48 16.0824 48.517 19Z" fill="white"/>
</svg>
